<?xml version="1.0" standalone="no"?>
<!DOCTYPE svg PUBLIC "-//W3C//DTD SVG 20010904//EN"
 "http://www.w3.org/TR/2001/REC-SVG-20010904/DTD/svg10.dtd">
<svg version="1.0" xmlns="http://www.w3.org/2000/svg"
 width="759.000000pt" height="759.000000pt" viewBox="0 0 759.000000 759.000000"
 preserveAspectRatio="xMidYMid meet">
<metadata>
Created by potrace 1.14, written by Peter Selinger 2001-2017
</metadata>
<g transform="translate(0.000000,759.000000) scale(0.100000,-0.100000)"
fill="#000000" stroke="none">
<path d="M1558 6602 c-210 -1 -328 -6 -328 -12 0 -6 4 -18 10 -28 5 -9 27 -55
49 -102 21 -47 65 -139 96 -205 32 -66 72 -151 90 -190 37 -79 113 -241 185
-390 26 -55 64 -136 85 -180 21 -44 71 -149 111 -234 41 -84 74 -155 74 -157
0 -1 41 -87 90 -190 50 -102 90 -188 90 -189 0 -2 41 -87 90 -190 50 -103 90
-188 90 -190 0 -2 34 -74 76 -161 42 -88 93 -195 114 -239 35 -75 64 -136 185
-390 69 -146 142 -299 185 -390 83 -177 130 -276 185 -390 31 -66 70 -147 85
-180 15 -33 64 -136 109 -229 45 -92 81 -170 81 -171 0 -1 33 -72 74 -156 40
-85 111 -233 156 -329 117 -248 220 -463 282 -586 l53 -106 50 104 c74 152
184 382 398 833 47 99 111 234 142 300 123 258 145 305 145 314 0 5 -31 74
-69 153 -38 80 -106 223 -151 319 -46 96 -102 215 -125 264 -23 50 -77 161
-119 249 -42 87 -76 160 -76 161 0 2 -34 75 -76 162 -42 87 -107 223 -144 303
-37 80 -102 216 -144 303 -42 87 -76 160 -76 162 0 1 -33 72 -74 156 -40 85
-85 179 -99 209 -13 30 -51 109 -82 175 -64 134 -129 271 -185 390 -21 44 -63
134 -95 200 -31 66 -85 181 -120 255 -35 74 -95 203 -135 285 -39 83 -86 180
-103 217 l-32 68 -410 2 c-225 2 -557 2 -737 0z"/>
<path d="M5080 6580 c-33 -5 -38 -11 -95 -125 -33 -66 -90 -183 -127 -260 -37
-77 -105 -220 -152 -318 -47 -99 -86 -180 -86 -182 0 -2 -38 -83 -85 -180 -47
-97 -85 -178 -85 -180 0 -2 -28 -61 -62 -132 -34 -70 -62 -130 -63 -133 -1 -3
-23 -50 -49 -105 -135 -282 -145 -316 -112 -390 41 -91 119 -261 175 -377 75
-159 148 -312 191 -403 80 -171 135 -285 197 -415 36 -74 81 -168 100 -209 26
-54 38 -70 45 -60 10 15 143 287 188 384 15 33 54 114 85 180 31 66 73 154 92
195 40 86 118 250 171 360 20 41 37 77 38 80 0 3 24 55 53 115 29 61 70 146
91 190 21 44 61 130 90 190 29 61 70 148 92 195 22 47 64 135 93 195 29 61 69
146 90 190 21 44 58 123 83 175 86 181 144 305 177 375 18 39 53 113 78 165
24 52 65 138 89 190 25 52 66 138 92 191 25 53 46 99 46 103 0 8 -1386 5
-1440 -4z"/>
</g>
</svg>
