<?xml version="1.0" standalone="no"?>
<!DOCTYPE svg PUBLIC "-//W3C//DTD SVG 20010904//EN"
 "http://www.w3.org/TR/2001/REC-SVG-20010904/DTD/svg10.dtd">
<svg version="1.0" xmlns="http://www.w3.org/2000/svg"
 width="607.000000pt" height="463.000000pt" viewBox="0 0 607.000000 463.000000"
 preserveAspectRatio="xMidYMid meet">
    <g transform="translate(0.000000,463.000000) scale(0.100000,-0.100000)"
    fill="#000000" stroke="none">
        <path d="M4037 4538 c-14 -11 -142 -278 -679 -1418 -36 -77 -48 -113 -45 -135
        3 -16 45 -113 94 -215 49 -102 176 -371 283 -597 106 -227 196 -413 200 -413
        4 0 37 64 75 143 37 78 310 655 607 1282 297 627 564 1191 593 1253 l54 112
        -583 0 c-450 0 -586 -3 -599 -12z" fill="#fff"/>
    </g>
</svg>
